<svg width="21" height="32" viewBox="0 0 21 32" fill="none" xmlns="http://www.w3.org/2000/svg">
<path d="M8.02996 0V3.99501H5.03371C2.3171 3.99501 0.0399501 6.27216 0.0399501 8.98876V10.9863C0.0399501 13.7029 1.79775 15.9401 4.39451 16.6192L14.6217 19.2559C15.181 19.4157 15.98 20.4145 15.98 21.0137V23.0112C15.98 23.5705 15.5406 24.01 14.9813 24.01H4.99376C4.51436 24.01 4.15481 23.8502 3.99501 23.7703V20.015H0V24.01C0 25.3683 0.799001 26.5268 1.7578 27.1261C2.67665 27.7653 3.83521 28.005 4.99376 28.005H7.99001V32H11.985V28.005H14.9813C17.7378 28.005 19.975 25.7678 19.975 23.0112V21.0137C19.975 18.2971 18.2172 16.0599 15.6205 15.3808L5.39326 12.7441C4.83396 12.5843 4.03496 11.5855 4.03496 10.9863V8.98876C4.03496 8.42946 4.47441 7.99001 5.03371 7.99001H15.0212C15.4607 7.99001 15.8602 8.14981 16.02 8.22971V11.985H20.015V7.99001C20.015 6.63171 19.216 5.47316 18.2572 4.87391C17.3383 4.23471 16.1798 3.99501 15.0212 3.99501H12.025V0L8.02996 0Z" fill="white"/>
</svg>
