<svg width="32" height="32" viewBox="0 0 32 32" fill="none" xmlns="http://www.w3.org/2000/svg">
<path fill-rule="evenodd" clip-rule="evenodd" d="M4.33062 27.539C4.33323 26.4895 4.92958 25.4635 5.90094 24.315L0.28375 20.7629C-0.0704163 20.6093 -0.0626038 20.3931 0.143125 20.1379L1.33323 19.1223C1.54938 18.9895 1.77854 18.9322 2.02594 18.9999L8.95823 20.1718L14.7343 13.9166L1.2499 4.79419C0.90875 4.59366 0.880105 4.3671 1.23167 4.10408L3.17698 2.552L20.7551 7.4921L25.9478 1.94002C27.69 0.432207 29.3827 -0.242272 30.6822 0.0780403C31.3983 0.255124 31.6509 0.468665 31.8723 1.14054C32.302 2.45825 31.6353 4.22908 30.0598 6.052L24.5077 11.2447L29.4478 28.8228L27.8957 30.7681C27.6327 31.1171 27.4061 31.0885 27.2056 30.7499L18.0806 17.2681L11.8254 23.0416L12.9973 29.9739C13.065 30.2187 13.0103 30.4478 12.8749 30.6666L11.8593 31.8567C11.6067 32.0624 11.3879 32.0702 11.2343 31.7161L7.68219 26.0989C6.52854 27.0728 5.5025 27.6692 4.44781 27.6692C4.35146 27.6666 4.33062 27.6327 4.33062 27.539Z" fill="white"/>
</svg>
